HIERARCHY
ROOT Hips
{
  OFFSET 0.0 0.0 0.0
  CHANNELS 6 Xposition Yposition Zposition Zrotation Yrotation Xrotation
  JOINT LHipJoint
  {
    OFFSET 0.0 0.0 0.0
    CHANNELS 3 Zrotation Yrotation Xrotation
    JOINT LeftUpLeg
    {
      OFFSET 1.363059998 -1.794630051 0.839290023
      CHANNELS 3 Zrotation Yrotation Xrotation
      JOINT LeftLeg
      {
        OFFSET 2.448110104 -6.726130009 0.0
        CHANNELS 3 Zrotation Yrotation Xrotation
        JOINT LeftFoot
        {
          OFFSET 2.562200069 -7.039589882 0.0
          CHANNELS 3 Zrotation Yrotation Xrotation
          JOINT LeftToeBase
          {
            OFFSET 0.157639995 -0.433109999 2.322550058
            CHANNELS 3 Zrotation Yrotation Xrotation
            End Site
            {
              OFFSET 0.0 -0.0 1.189659953
            }
          }
        }
      }
    }
  }
  JOINT RHipJoint
  {
    OFFSET 0.0 0.0 0.0
    CHANNELS 3 Zrotation Yrotation Xrotation
    JOINT RightUpLeg
    {
      OFFSET -1.305520058 -1.794630051 0.839290023
      CHANNELS 3 Zrotation Yrotation Xrotation
      JOINT RightLeg
      {
        OFFSET -2.54253006 -6.985549927 0.0
        CHANNELS 3 Zrotation Yrotation Xrotation
        JOINT RightFoot
        {
          OFFSET -2.568259954 -7.056230068 0.0
          CHANNELS 3 Zrotation Yrotation Xrotation
          JOINT RightToeBase
          {
            OFFSET -0.164729998 -0.452589989 2.363149881
            CHANNELS 3 Zrotation Yrotation Xrotation
            End Site
            {
              OFFSET -0.0 -0.0 1.21081996
            }
          }
        }
      }
    }
  }
  JOINT LowerBack
  {
    OFFSET 0.0 0.0 0.0
    CHANNELS 3 Zrotation Yrotation Xrotation
    JOINT Spine
    {
      OFFSET 0.028270001 2.035589933 -0.193379998
      CHANNELS 3 Zrotation Yrotation Xrotation
      JOINT Spine1
      {
        OFFSET 0.05672 2.04885006 -0.042750001
        CHANNELS 3 Zrotation Yrotation Xrotation
        JOINT Neck
        {
          OFFSET 0.0 0.0 0.0
          CHANNELS 3 Zrotation Yrotation Xrotation
          JOINT Neck1
          {
            OFFSET -0.054170001 1.74624002 0.172020003
            CHANNELS 3 Zrotation Yrotation Xrotation
            JOINT Head
            {
              OFFSET 0.10407 1.761360049 -0.123970002
              CHANNELS 3 Zrotation Yrotation Xrotation
              End Site
              {
                OFFSET 0.0372 1.770439982 -0.062410001
              }
            }
          }
        }
        JOINT LeftShoulder
        {
          OFFSET 0.0 0.0 0.0
          CHANNELS 3 Zrotation Yrotation Xrotation
          JOINT LeftArm
          {
            OFFSET 3.362410069 1.200889945 -0.311210006
            CHANNELS 3 Zrotation Yrotation Xrotation
            JOINT LeftForeArm
            {
              OFFSET 4.982999802 -0.0 -0.0
              CHANNELS 3 Zrotation Yrotation Xrotation
              JOINT LeftHand
              {
                OFFSET 3.483560085 -0.0 -0.0
                CHANNELS 3 Zrotation Yrotation Xrotation
                JOINT LeftFingerBase
                {
                  OFFSET 0.0 0.0 0.0
                  CHANNELS 3 Zrotation Yrotation Xrotation
                  JOINT LeftHandIndex1
                  {
                    OFFSET 0.715260029 -0.0 -0.0
                    CHANNELS 3 Zrotation Yrotation Xrotation
                    End Site
                    {
                      OFFSET 0.576659977 -0.0 -0.0
                    }
                  }
                }
                JOINT LThumb
                {
                  OFFSET 0.0 0.0 0.0
                  CHANNELS 3 Zrotation Yrotation Xrotation
                  End Site
                  {
                    OFFSET 0.585470021 -0.0 0.585470021
                  }
                }
              }
            }
          }
        }
        JOINT RightShoulder
        {
          OFFSET 0.0 0.0 0.0
          CHANNELS 3 Zrotation Yrotation Xrotation
          JOINT RightArm
          {
            OFFSET -3.136600018 1.374050021 -0.404650003
            CHANNELS 3 Zrotation Yrotation Xrotation
            JOINT RightForeArm
            {
              OFFSET -5.241899967 -0.0 -0.0
              CHANNELS 3 Zrotation Yrotation Xrotation
              JOINT RightHand
              {
                OFFSET -3.444169998 -0.0 -0.0
                CHANNELS 3 Zrotation Yrotation Xrotation
                JOINT RightFingerBase
                {
                  OFFSET 0.0 0.0 0.0
                  CHANNELS 3 Zrotation Yrotation Xrotation
                  JOINT RightHandIndex1
                  {
                    OFFSET -0.622529984 -0.0 -0.0
                    CHANNELS 3 Zrotation Yrotation Xrotation
                    End Site
                    {
                      OFFSET -0.501900017 -0.0 -0.0
                    }
                  }
                }
                JOINT RThumb
                {
                  OFFSET 0.0 0.0 0.0
                  CHANNELS 3 Zrotation Yrotation Xrotation
                  End Site
                  {
                    OFFSET -0.509559989 -0.0 0.509559989
                  }
                }
              }
            }
          }
        }
      }
    }
  }
}
MOTION
Frames: 4
Frame Time: 0.0083333
0.0 26.437400818 0.0 -173.29460144 0.901008666 -168.558990479 0.0 -0.0 0.0 -9.12269783 -7.354498386 -31.447595596 3.150098801 10.934201241 32.0583992 3.743799925 -7.636200905 -35.272800446 0.087800011 -1.911200047 -5.260399818 0.0 -0.0 0.0 27.453001022 13.535699844 -28.286993027 -2.369099855 -9.595802307 27.677600861 -0.902799368 -22.429805756 -36.867401123 -0.059400022 1.572600007 -4.325900555 -1.479799986 -1.20239985 32.375709534 2.561500072 2.173099995 13.326701164 2.917500019 2.481400251 -2.588799715 -16.654205322 -19.388404846 8.462603569 27.853500366 -28.003202438 -5.221001625 9.473702431 -14.689100266 3.614500284 0.0 -0.0 0.0 -67.513473511 -60.85458374 27.006483078 29.457401276 -40.423694611 -11.056099892 0.0 -0.0 27.253000259 12.080600739 -20.426799774 -4.271900177 -7.125 0.0 0.0 -10.494198799 9.406201363 8.790699959 0.0 -0.0 0.0 74.806129456 61.833110809 37.905632019 -35.590393066 45.229095459 -15.230992317 0.0 -0.0 18.329099655 -19.555597305 -6.276400089 2.223899364 7.125 -0.0 0.0 6.060499668 -36.578800201 1.260901332 
0.001600266 26.419599533 0.094799042 -173.219802856 1.335000634 -168.786987305 0.0 -0.0 0.0 -9.054400444 -7.19600153 -31.475301743 3.138899803 10.916599274 31.999095917 3.710699558 -7.528298855 -35.118301392 0.074999988 -1.766999841 -4.862099171 0.0 -0.0 0.0 27.526002884 13.70499897 -28.215295792 -2.336500645 -9.534300804 27.481498718 -0.902499676 -22.496498108 -36.940494537 -0.087200001 1.904799819 -5.242699146 -1.678900003 -0.979100168 32.394996643 2.558900356 2.386300802 13.315699577 2.957299948 2.574699879 -2.624900341 -16.36979866 -19.523601532 7.886898994 27.54369545 -28.116699219 -4.985900402 9.251998901 -14.684898376 3.70410037 0.0 -0.0 0.0 -67.046813965 -61.383293152 26.769210815 28.824905396 -39.864601135 -10.648302078 0.0 -0.0 27.184799194 11.918699265 -20.376903534 -4.203400135 -7.125 0.0 0.0 -10.596598625 9.472399712 8.865299225 0.0 -0.0 0.0 75.168418884 62.937004089 37.704814911 -33.945087433 44.043991089 -14.074899673 0.0 -0.0 18.801200867 -19.227804184 -4.756700516 1.656700134 7.125 -0.0 0.0 6.166499138 -34.962902069 1.527300596 
0.003700256 26.395999908 0.193099976 -173.14630127 1.377002597 -169.014022827 0.0 -0.0 0.0 -8.942900658 -7.06499815 -31.695001602 3.163899899 10.955800056 32.130802155 3.67570138 -7.963302135 -34.900997162 0.051299985 -1.462199688 -4.021598339 0.0 -0.0 0.0 27.610599518 13.848098755 -28.272502899 -2.335900545 -9.533201218 27.47810173 -0.910898149 -22.59679985 -37.096691132 -0.119199969 2.225899458 -6.130300522 -1.738100171 -0.900999725 32.366203308 2.641500473 2.483299971 13.336003304 3.052900553 2.621199846 -2.599400043 -16.128101349 -19.619304657 7.402301311 27.283102036 -28.167303085 -4.908599854 9.080200195 -14.663101196 3.734200239 0.0 -0.0 0.0 -66.895301819 -62.321098328 26.578399658 27.823900223 -38.953601837 -10.01280117 0.0 -0.0 27.391401291 11.876698494 -20.566198349 -4.225298882 -7.125 0.0 0.0 -10.626899719 9.288097382 8.931598663 0.0 -0.0 0.0 74.950401306 63.625896454 37.660396576 -33.112010956 43.415901184 -13.499001503 0.0 -0.0 18.460599899 -19.720298767 -5.804800034 2.076299667 7.125 -0.0 0.0 5.869699001 -36.090896606 1.291099668 
0.004699707 26.360200882 0.299297333 -172.983001709 1.434004545 -169.042999268 0.0 -0.0 0.0 -8.706001282 -7.04500103 -32.131904602 3.174700022 10.97259903 32.187591553 3.651400328 -8.058200836 -34.770698547 0.04339999 -1.343899846 -3.695499182 0.0 -0.0 0.0 27.728803635 14.039505005 -28.613399506 -2.334500074 -9.530502319 27.469402313 -0.929600716 -22.60200119 -37.19940567 -0.163000003 2.601000071 -7.169799805 -1.69720006 -0.789000034 32.176994324 2.783200264 2.625499964 13.308601379 3.143700123 2.680399895 -2.565300465 -15.900900841 -19.76619339 6.830198765 26.895397186 -28.296602249 -4.733301163 8.844700813 -14.668004036 3.802799702 0.0 -0.0 0.0 -67.047302246 -63.408103943 26.518407822 26.765703201 -37.954898834 -9.354700089 0.0 -0.0 27.61989975 11.834899902 -20.711704254 -4.238400936 -7.125 0.0 0.0 -10.656497955 9.147497177 8.987898827 0.0 -0.0 0.0 74.609405518 64.435409546 36.697216034 -31.890697479 42.45980072 -12.66699791 0.0 -0.0 19.377700806 -18.232898712 -3.805199146 1.252399802 7.125 -0.0 0.0 6.88409996 -33.924999237 1.881599903 
